<?xml version="1.0" encoding="UTF-8"?>
<svg id="Layer_1" xmlns="http://www.w3.org/2000/svg" viewBox="0 0 32 32">
  <defs>
    <style>
      .cls-1 {
        fill: #a8aac3;
      }

      .cls-2 {
        fill: #3e5e3a;
      }

      .cls-3 {
        fill: #bde55e;
      }

      .cls-4 {
        fill: #445f49;
      }

      .cls-5 {
        fill: #41633d;
      }

      .cls-6 {
        fill: #89d749;
      }

      .cls-7 {
        fill: #fcf5ea;
      }

      .cls-8 {
        fill: #adafc8;
      }

      .cls-9 {
        fill: #efe7bf;
      }

      .cls-10 {
        fill: #a2aec6;
      }

      .cls-11 {
        fill: #563117;
      }

      .cls-12 {
        fill: #fdf4ee;
      }

      .cls-13 {
        fill: #e1e8f3;
      }

      .cls-14 {
        fill: #dce3ee;
      }

      .cls-15 {
        fill: #fae66b;
      }

      .cls-16 {
        fill: #f9f7ed;
      }

      .cls-17 {
        fill: #533219;
      }

      .cls-18 {
        fill: #f3a047;
      }

      .cls-19 {
        fill: #e2611a;
      }

      .cls-20 {
        fill: #f9741c;
      }

      .cls-21 {
        fill: #fdf2ef;
      }

      .cls-22 {
        fill: #ffe4da;
      }

      .cls-23 {
        fill: #70b75b;
      }

      .cls-24 {
        fill: #c8d4e8;
      }

      .cls-25 {
        fill: #fad88d;
      }

      .cls-26 {
        fill: #8cdc4b;
      }

      .cls-27 {
        fill: #48aa2c;
      }

      .cls-28 {
        fill: #46a52b;
      }

      .cls-29 {
        fill: #95e059;
      }

      .cls-30 {
        fill: #eaddda;
      }

      .cls-31 {
        fill: #cb6f46;
      }
    </style>
  </defs>
  <circle class="cls-3" cx="17.57" cy="17.89" r="13.41"/>
  <path class="cls-28" d="M4.2,15.98c-.99-.35-2.07.17-2.41,1.16-.09.27-.12.54-.09.8-.41.25-.75.63-.92,1.12-.38,1.09.18,2.28,1.25,2.7-.15,1,.42,1.99,1.41,2.34,1.12.39,2.34-.2,2.73-1.31.02-.07.03-.14.05-.2.27-.34.43-.86.34-1.45-.06-.43-.23-.79-.45-1.06.08-.1.15-.2.19-.32.16-.45.01-.93-.33-1.22.01-.03.03-.05.04-.07.21-.59-.1-1.23-.69-1.43,0,0-.01,0-.02,0-.2-.47-.59-.86-1.11-1.04Z"/>
  <path class="cls-6" d="M3.18,15.92c-.63.13-1.17.57-1.4,1.22-.09.27-.12.54-.09.8-.41.25-.75.63-.92,1.12-.36,1.03.12,2.14,1.07,2.61.67-.17,1.24-.67,1.48-1.37.02-.07.03-.14.05-.2.27-.34.43-.86.34-1.45-.06-.43-.23-.79-.45-1.06.08-.1.15-.2.19-.32.16-.45.01-.93-.33-1.22.01-.03.03-.05.04-.07,0-.02,0-.04,0-.06Z"/>
  <path class="cls-29" d="M20.3,27.05c-7.42,0-13.43-6.01-13.43-13.43,0-1.8.36-3.51,1-5.08-2.29,2.41-3.7,5.66-3.7,9.24,0,7.42,6.01,13.43,13.43,13.43,5.62,0,10.43-3.45,12.43-8.35-2.45,2.57-5.89,4.19-9.73,4.19Z"/>
  <ellipse class="cls-5" cx="17.6" cy="28.17" rx="1.11" ry=".29" transform="translate(-5.98 4.78) rotate(-13.24)"/>
  <polygon class="cls-13" points="18.08 28.14 17.65 28.25 17.93 29.16 18.18 29.09 18.08 28.14"/>
  <polygon class="cls-8" points="18.05 29.13 17.93 29.16 17.65 28.25 17.77 28.22 18.05 29.13"/>
  <path class="cls-27" d="M20.5,29.07c.38.5.31,1.23-.14,1.64-.12.11-.26.18-.41.22-.05.29-.19.56-.41.77-.51.45-1.25.38-1.68-.15-.5.3-1.14.18-1.52-.32-.43-.56-.35-1.39.16-1.86.03-.03.07-.05.1-.07.12-.23.37-.43.7-.51.24-.06.46-.04.65.04.04-.06.08-.13.13-.18.21-.19.49-.2.71-.07.01-.01.02-.03.03-.04.27-.24.67-.2.9.09,0,0,0,0,0,.01.29.02.57.16.77.42Z"/>
  <path class="cls-26" d="M20.5,29.07c-.06-.08-.14-.13-.22-.19-.23-.11-.5-.08-.7.1-.06.05-.1.12-.14.19-.2-.08-.44-.1-.69-.04-.35.08-.62.3-.75.54-.04.03-.07.05-.11.08-.52.47-.6,1.28-.23,1.87.07-.02.13-.04.2-.07.43.53,1.17.6,1.68.15.23-.2.36-.48.41-.77.14-.04.28-.11.41-.22.46-.41.52-1.14.14-1.64Z"/>
  <g>
    <path class="cls-28" d="M21.35,3.12c.38-.69.13-1.55-.56-1.93-.19-.1-.38-.15-.58-.17-.13-.33-.37-.63-.71-.82-.76-.42-1.71-.15-2.15.59-.72-.23-1.53.07-1.9.75-.43.78-.15,1.76.63,2.19.05.03.1.04.14.06.21.25.58.42,1.03.44.32,0,.61-.07.84-.2.06.07.13.13.21.18.31.17.68.12.94-.09.02.01.03.03.05.04.41.23.92.08,1.15-.33,0,0,0,0,0-.01.37-.09.71-.33.91-.69Z"/>
    <g>
      <path class="cls-6" d="M19.87,2.47c.56.31,1.26.11,1.57-.45-.1-.34-.33-.65-.67-.83-.19-.1-.38-.15-.58-.17-.13-.33-.37-.63-.71-.82-.76-.42-1.71-.15-2.15.59-.57-.19-1.19-.02-1.61.39.02.39.21.77.58.97.56.31,1.27.11,1.58-.46.01-.03.01-.06.03-.08.09.01.18,0,.27-.01.07.07.13.14.22.19.31.17.65.17.95.06.09.26.27.49.53.64Z"/>
      <polygon class="cls-14" points="18.69 4.58 18.11 4.56 18.27 3.4 18.61 3.42 18.69 4.58"/>
    </g>
    <polygon class="cls-1" points="18.43 3.41 18.27 3.4 18.11 4.56 18.27 4.56 18.43 3.41"/>
  </g>
  <path class="cls-7" d="M13.92,13.37c6.99,1.67,11.77,5.91,14.3,12.55.87-1.14,1.56-2.42,2.04-3.8-3.91-7.7-10.43-10.8-15.55-12.03-2.8-.67-5.8-.38-7.86-.38-.85,1.03-1.17,1.72-1.68,2.97,1.91-.14,5.19-.18,8.76.68Z"/>
  <path class="cls-24" d="M13.86,13.04c-3.42-.8-6.56-.82-8.55-.7-.05.12-.1.22-.15.35,1.91-.14,5.19-.18,8.76.68,6.99,1.67,11.77,5.91,14.3,12.55.09-.12.17-.25.26-.37-2.59-6.61-7.48-10.84-14.62-12.51Z"/>
  <ellipse class="cls-5" cx="20.39" cy="26.97" rx="1.45" ry=".38" transform="translate(-5.64 5.39) rotate(-13.24)"/>
  <polygon class="cls-13" points="21.01 26.94 20.45 27.08 20.81 28.26 21.14 28.18 21.01 26.94"/>
  <polygon class="cls-8" points="20.97 28.22 20.81 28.26 20.45 27.08 20.61 27.04 20.97 28.22"/>
  <path class="cls-27" d="M24.16,28.15c.49.65.41,1.6-.19,2.14-.16.14-.34.24-.53.29-.07.38-.24.74-.54,1-.66.59-1.62.5-2.18-.19-.65.39-1.48.23-1.97-.41-.56-.73-.46-1.82.21-2.42.04-.04.09-.06.13-.09.16-.3.49-.56.92-.66.31-.07.6-.05.85.05.05-.08.1-.16.17-.23.27-.24.64-.26.93-.09.02-.02.02-.04.04-.05.35-.32.88-.26,1.17.12,0,0,0,.01,0,.01.38.02.74.2,1,.54Z"/>
  <path class="cls-26" d="M24.16,28.15c-.08-.11-.18-.17-.28-.24-.3-.14-.65-.11-.91.13-.08.07-.13.16-.18.25-.26-.1-.57-.13-.9-.05-.46.11-.81.39-.98.71-.05.03-.09.06-.14.1-.68.61-.78,1.66-.3,2.44.09-.03.17-.05.25-.09.56.69,1.53.78,2.18.19.29-.26.47-.62.54-1,.19-.05.37-.15.53-.29.59-.53.68-1.49.19-2.14Z"/>
  <ellipse class="cls-2" cx="9.83" cy="8.24" rx="1.36" ry=".45" transform="translate(-2.82 10.38) rotate(-49.6)"/>
  <g>
    <path class="cls-28" d="M10.97,4.15c-.32-.94-1.34-1.45-2.28-1.13-.25.09-.47.23-.66.4-.43-.16-.91-.19-1.37-.04-1.05.35-1.61,1.47-1.3,2.52-.84.47-1.25,1.48-.93,2.43.36,1.07,1.52,1.64,2.59,1.29.06-.02.12-.05.18-.08.41.01.9-.18,1.29-.59.29-.29.46-.63.53-.96.12,0,.23,0,.35-.04.43-.14.7-.53.72-.96.03,0,.05,0,.08-.01.56-.19.86-.8.67-1.36,0,0,0-.01,0-.02.24-.43.3-.94.14-1.44Z"/>
    <path class="cls-6" d="M9.09,4.97c.77-.26,1.18-1.09.93-1.86-.41-.2-.89-.24-1.36-.09-.25.09-.47.23-.66.4-.43-.16-.91-.19-1.37-.04-1.05.35-1.61,1.47-1.3,2.52-.66.37-1.04,1.09-1.02,1.84.38.32.9.46,1.4.29.77-.26,1.19-1.1.93-1.87-.01-.04-.04-.06-.06-.1.09-.08.15-.17.22-.27.12,0,.24,0,.36-.05.42-.14.72-.46.88-.84.32.14.69.18,1.05.06Z"/>
  </g>
  <polygon class="cls-14" points="10.05 7.88 9.53 8.41 8.59 7.27 8.89 6.96 10.05 7.88"/>
  <polygon class="cls-1" points="8.73 7.12 8.59 7.27 9.53 8.41 9.68 8.26 8.73 7.12"/>
  <ellipse class="cls-2" cx="12.64" cy="7.69" rx="2.97" ry="1.16" transform="translate(-1.89 4.92) rotate(-20.5)"/>
  <path class="cls-18" d="M14.95,5.68c-.03-.15-.07-.29-.07-.45,0-.92.58-1.68,1.34-1.81-.12-.01-.24-.03-.37-.03-1.34,0-2.43.82-2.43,1.84,0,.16.03.31.08.45h1.45Z"/>
  <path class="cls-25" d="M14.93,5.68l2.84-.57.08-.02c-.06-.95-.7-1.7-1.48-1.7s-1.5.82-1.5,1.84c0,.16.02.31.05.45h0Z"/>
  <path class="cls-22" d="M16.25,4.09c-.29.05-.48.32-.43.6l.15.79,1.04-.19-.15-.79c-.05-.28-.33-.46-.61-.41Z"/>
  <rect class="cls-11" x="15.92" y="3.71" width=".49" height=".17" transform="translate(-.43 4.26) rotate(-14.8)"/>
  <path class="cls-15" d="M15.5,6.79c-.05-.17-.12-.33-.21-.49-.22-.4-.57-.61-1.01-.72-.6-.14-1.32-.01-1.86.28-.42.23-.88.58-1.15.97-.23.34-.32.75-.38,1.16-.06.33,0,.77.25,1.01.16.15.39.16.61.14.52-.05,1.05-.22,1.54-.4.11-.04,1.63-.71,2.14-1.24.26-.27.12-.58.07-.72Z"/>
  <path class="cls-18" d="M11.47,8.43c0-.45,0-.91.19-1.32.22-.48.65-.94,1.05-1.28.1-.08.21-.15.33-.22-.26.06-.5.14-.72.26-.42.23-.88.58-1.15.97-.23.34-.32.75-.38,1.16-.06.33,0,.77.25,1.01.16.15.39.16.61.14,0,0,0,0,.01,0-.12-.22-.19-.48-.19-.72Z"/>
  <path class="cls-17" d="M14.15,6.9c-.06-.02-.13,0-.19,0-.07.02-.13.05-.18.1-.09.1-.11.24-.11.38,0,.4.22,1.1.22,1.1,0,0,.15-.08.33-.18.16-.09.61-.35.61-.35-.09-.18-.19-.35-.29-.53s-.19-.34-.32-.48c-.02-.03-.05-.04-.08-.05Z"/>
  <path class="cls-17" d="M12.39,7.97c-.32.03-.68.01-.96-.07,0-.12-.01-.16-.02-.28.41.07.63.06.96.04,0,.12.01.2.02.31Z"/>
  <path class="cls-9" d="M11.47,7.85c0-.1-.01-.15-.02-.23-.01,0-.02,0-.04,0,0,.12.01.16.02.28.28.08.64.1.96.07,0-.02,0-.03,0-.04-.31.02-.65,0-.92-.07Z"/>
  <path class="cls-17" d="M15.28,6.3c-.07.08-.12.13-.2.21.06.08.07.12.1.21.06-.06.14-.16.19-.22-.03-.07-.09-.18-.1-.2Z"/>
  <g>
    <ellipse class="cls-10" cx="12.75" cy="6.15" rx="1.17" ry=".47" transform="translate(-1.34 4.77) rotate(-20.14)"/>
    <ellipse class="cls-21" cx="12.76" cy="6.05" rx="1.17" ry=".47" transform="translate(-1.3 4.76) rotate(-20.14)"/>
    <path class="cls-30" d="M11.94,6.58c-.12-.29.36-.74,1.08-1.01.14-.05.27-.08.4-.11-.24,0-.54.04-.85.16-.6.23-1.01.61-.9.85.04.09.17.14.32.16-.01-.02-.04-.03-.05-.04Z"/>
  </g>
  <ellipse class="cls-31" cx="12.64" cy="5.85" rx=".74" ry=".3" transform="translate(-1.24 4.7) rotate(-20.11)"/>
  <ellipse class="cls-20" cx="12.65" cy="5.79" rx=".74" ry=".3" transform="translate(-1.22 4.7) rotate(-20.11)"/>
  <path class="cls-19" d="M12.12,6.06c-.07-.15.19-.4.57-.54.17-.06.33-.09.47-.1-.16-.03-.39,0-.63.08-.38.14-.64.39-.57.54.04.09.17.12.35.12-.09-.02-.16-.05-.18-.1Z"/>
  <g>
    <ellipse class="cls-10" cx="12.56" cy="5.68" rx=".4" ry=".16" transform="translate(-1.19 4.67) rotate(-20.14)"/>
    <ellipse class="cls-21" cx="12.56" cy="5.64" rx=".4" ry=".16" transform="translate(-1.18 4.67) rotate(-20.14)"/>
    <path class="cls-30" d="M12.28,5.83c-.04-.1.12-.25.37-.35.05-.02.09-.03.14-.04-.08,0-.18.01-.29.06-.21.08-.34.21-.31.29.01.03.06.05.11.06,0,0-.02,0-.02-.02Z"/>
  </g>
  <path class="cls-21" d="M12.23,4.97c-.07.03-.04.23-.04.28,0,.08.01.41.02.44.01.09.16.07.23.06.07,0,.15-.02.21-.06.07-.04.25-.16.17-.25-.1-.11-.21-.21-.32-.3-.05-.04-.23-.18-.26-.17Z"/>
  <path class="cls-30" d="M12.3,5.71s-.07-.44-.08-.53c0-.02-.01-.07-.02-.13-.01.07-.01.16,0,.2,0,.08.01.41.02.44.01.07.1.07.17.07-.03-.01-.06-.01-.07-.04Z"/>
  <ellipse class="cls-4" cx="17.55" cy="7.53" rx="1.19" ry=".56"/>
  <path class="cls-30" d="M17.32,7.24v-.52c0-.18.26-.32.61-.36-.06,0-.12-.02-.19-.02-.44,0-.8.17-.8.38v.52c0,.21.36.38.8.38.07,0,.13-.01.19-.02-.35-.04-.61-.18-.61-.36Z"/>
  <ellipse class="cls-30" cx="17.74" cy="7.47" rx="1.07" ry=".44"/>
  <ellipse class="cls-16" cx="17.74" cy="7.41" rx="1.07" ry=".44"/>
  <path class="cls-30" d="M16.93,7.41c0-.22.41-.4.94-.43-.04,0-.08-.01-.12-.01-.59,0-1.07.2-1.07.44s.48.44,1.07.44c.04,0,.08,0,.12-.01-.53-.03-.94-.2-.94-.43Z"/>
  <path class="cls-12" d="M17.74,6.34c-.44,0-.8.17-.8.38v.52c0,.21.36.38.8.38s.8-.17.8-.38v-.52c0-.21-.36-.38-.8-.38Z"/>
  <path class="cls-30" d="M17.1,7.24v-.52c0-.2.32-.35.72-.37-.03,0-.05,0-.08,0-.44,0-.8.17-.8.38v.52c0,.21.36.38.8.38.03,0,.05,0,.08,0-.4-.02-.72-.18-.72-.37Z"/>
  <ellipse class="cls-30" cx="17.74" cy="6.76" rx=".8" ry=".38"/>
  <ellipse class="cls-12" cx="17.74" cy="6.72" rx=".8" ry=".38"/>
  <ellipse class="cls-17" cx="17.74" cy="6.68" rx=".61" ry=".22"/>
  <path class="cls-23" d="M18.07,6.3s-.02-.03-.02-.05c.06-.04.1-.11.1-.18,0-.13-.11-.24-.24-.24s-.24.11-.24.24c0,.02.02.04.03.06-.04.03-.05.07-.07.11-.01,0-.02-.01-.03-.01-.13,0-.24.11-.24.24s.11.24.24.24c.06,0,.11-.03.16-.07.04.04.1.07.16.07.13,0,.24-.11.24-.24,0-.07-.03-.13-.08-.17Z"/>
</svg>